<svg width="64" height="64" viewBox="0 0 64 64" fill="none" xmlns="http://www.w3.org/2000/svg">
<rect x="4" y="4" width="56" height="56" rx="28" fill="#18B743"/>
<path d="M32 42C35.976 42 40 40.626 40 38V34V30V26C40 23.374 35.976 22 32 22C28.024 22 24 23.374 24 26V30V34V38C24 40.626 28.024 42 32 42ZM32 40C28.278 40 26 38.705 26 38V36.732C27.541 37.57 29.777 38 32 38C34.223 38 36.459 37.57 38 36.732V38C38 38.705 35.722 40 32 40ZM32 24C35.722 24 38 25.295 38 26C38 26.705 35.722 28 32 28C28.278 28 26 26.705 26 26C26 25.295 28.278 24 32 24ZM26 28.732C27.541 29.57 29.777 30 32 30C34.223 30 36.459 29.57 38 28.732V30C38 30.705 35.722 32 32 32C28.278 32 26 30.705 26 30V28.732ZM26 32.732C27.541 33.57 29.777 34 32 34C34.223 34 36.459 33.57 38 32.732V34C38 34.705 35.722 36 32 36C28.278 36 26 34.705 26 34V32.732Z" fill="white"/>
<rect x="2" y="2" width="60" height="60" rx="30" stroke="#18B743" stroke-opacity="0.2" stroke-width="4"/>
</svg>
