<svg width="64" height="64" viewBox="0 0 64 64" fill="none" xmlns="http://www.w3.org/2000/svg">
<rect x="4.00012" y="4" width="56" height="56" rx="28" fill="#22B485"/>
<path fill-rule="evenodd" clip-rule="evenodd" d="M23.0001 36V24C23.0001 22.897 23.8971 22 25.0001 22H39.0001C40.1031 22 41.0001 22.897 41.0001 24V36C41.0001 37.103 40.1031 38 39.0001 38H35.4141L32.0001 41.414L28.5861 38H25.0001C23.8971 38 23.0001 37.103 23.0001 36ZM39.0001 24H25.0001V36H29.4141L32.0001 38.586L34.5861 36H39.0001V24ZM35.7931 25.793L37.2071 27.207L31.0001 33.414L27.2931 29.707L28.7071 28.293L31.0001 30.586L35.7931 25.793Z" fill="white"/>
<rect x="2.00012" y="2" width="60" height="60" rx="30" stroke="#22B485" stroke-opacity="0.2" stroke-width="4"/>
</svg>
