<svg width="24" height="24" viewBox="0 0 24 24" fill="none" xmlns="http://www.w3.org/2000/svg">
<g opacity="0.2">
<path d="M20.9469 8.305C20.9359 7.548 20.7959 6.797 20.5279 6.089C20.0589 4.88 19.1039 3.924 17.8949 3.456C17.1959 3.193 16.4569 3.052 15.7089 3.036C14.7469 2.993 14.4419 2.981 11.9999 2.981C9.55795 2.981 9.24495 2.981 8.28995 3.036C7.54295 3.052 6.80395 3.193 6.10495 3.456C4.89595 3.924 3.93995 4.88 3.47195 6.089C3.20895 6.788 3.06695 7.527 3.05295 8.274C3.00995 9.237 2.99695 9.542 2.99695 11.984C2.99695 14.426 2.99695 14.738 3.05295 15.694C3.06795 16.442 3.20895 17.18 3.47195 17.881C3.94095 19.089 4.89595 20.045 6.10595 20.513C6.80195 20.785 7.54095 20.939 8.29095 20.963C9.25395 21.006 9.55895 21.019 12.0009 21.019C14.4429 21.019 14.7559 21.019 15.7109 20.963C16.4579 20.948 17.1969 20.807 17.8969 20.544C19.1059 20.075 20.0609 19.119 20.5299 17.911C20.7929 17.211 20.9339 16.473 20.9489 15.724C20.9919 14.762 21.0049 14.457 21.0049 12.014C21.0029 9.572 21.0029 9.262 20.9469 8.305ZM11.9939 16.602C9.43995 16.602 7.37095 14.533 7.37095 11.979C7.37095 9.425 9.43995 7.356 11.9939 7.356C14.5459 7.356 16.6169 9.425 16.6169 11.979C16.6169 14.533 14.5459 16.602 11.9939 16.602ZM16.8009 8.263C16.2039 8.263 15.7229 7.781 15.7229 7.185C15.7229 6.589 16.2039 6.107 16.8009 6.107C17.3959 6.107 17.8779 6.589 17.8779 7.185C17.8779 7.781 17.3959 8.263 16.8009 8.263Z" fill="white"/>
<path d="M11.994 14.982C13.6525 14.982 14.997 13.6375 14.997 11.979C14.997 10.3205 13.6525 8.976 11.994 8.976C10.3355 8.976 8.99097 10.3205 8.99097 11.979C8.99097 13.6375 10.3355 14.982 11.994 14.982Z" fill="white"/>
</g>
</svg>
