<svg width="20" height="20" viewBox="0 0 20 20" fill="none" xmlns="http://www.w3.org/2000/svg">
<path d="M18.9469 6.305C18.9359 5.548 18.7959 4.797 18.5279 4.089C18.0589 2.88 17.1039 1.924 15.8949 1.456C15.1959 1.193 14.4569 1.052 13.7089 1.036C12.7469 0.993003 12.4419 0.981003 9.99995 0.981003C7.55795 0.981003 7.24495 0.981003 6.28995 1.036C5.54295 1.052 4.80395 1.193 4.10495 1.456C2.89595 1.924 1.93995 2.88 1.47195 4.089C1.20895 4.788 1.06695 5.527 1.05295 6.274C1.00995 7.237 0.996948 7.542 0.996948 9.984C0.996948 12.426 0.996948 12.738 1.05295 13.694C1.06795 14.442 1.20895 15.18 1.47195 15.881C1.94095 17.089 2.89595 18.045 4.10595 18.513C4.80195 18.785 5.54095 18.939 6.29095 18.963C7.25395 19.006 7.55895 19.019 10.0009 19.019C12.4429 19.019 12.7559 19.019 13.7109 18.963C14.4579 18.948 15.1969 18.807 15.8969 18.544C17.1059 18.075 18.0609 17.119 18.5299 15.911C18.7929 15.211 18.9339 14.473 18.9489 13.724C18.9919 12.762 19.0049 12.457 19.0049 10.014C19.0029 7.572 19.0029 7.262 18.9469 6.305ZM9.99395 14.602C7.43995 14.602 5.37095 12.533 5.37095 9.979C5.37095 7.425 7.43995 5.356 9.99395 5.356C12.5459 5.356 14.6169 7.425 14.6169 9.979C14.6169 12.533 12.5459 14.602 9.99395 14.602ZM14.8009 6.263C14.2039 6.263 13.7229 5.781 13.7229 5.185C13.7229 4.589 14.2039 4.107 14.8009 4.107C15.3959 4.107 15.8779 4.589 15.8779 5.185C15.8779 5.781 15.3959 6.263 14.8009 6.263Z" fill="white"/>
</svg>
