<svg width="21" height="15" viewBox="0 0 21 15" fill="none" xmlns="http://www.w3.org/2000/svg">
<path d="M20.593 2.20301C20.363 1.34501 19.688 0.668007 18.831 0.437007C17.265 0.00700739 11 7.59651e-06 11 7.59651e-06C11 7.59651e-06 4.73596 -0.00699261 3.16896 0.404007C2.32896 0.633007 1.63496 1.32501 1.40296 2.18201C0.989964 3.74801 0.985963 6.99601 0.985963 6.99601C0.985963 6.99601 0.981963 10.26 1.39196 11.81C1.62196 12.667 2.29696 13.344 3.15496 13.575C4.73696 14.005 10.985 14.012 10.985 14.012C10.985 14.012 17.25 14.019 18.816 13.609C19.672 13.379 20.35 12.703 20.583 11.846C20.997 10.281 21 7.03401 21 7.03401C21 7.03401 21.02 3.76901 20.593 2.20301ZM8.99596 10.005L9.00096 4.00501L14.208 7.01001L8.99596 10.005Z" fill="white"/>
</svg>
